<svg width="50" height="50" xmlns="http://www.w3.org/2000/svg">
 <style type="text/css">.st0{fill:#2D3C49;}
	.st1{fill:#02B3E4;}</style>

 <g>
  <title>background</title>
  <rect fill="none" id="canvas_background" height="52" width="52" y="-1" x="-1"/>
 </g>
 <g>
  <title>Layer 1</title>
  <path d="m18.3,5l-13.3,7.7l0,17.6l0,0c0,8.1 6.5,14.7 14.6,14.7c2.7,0 5.2,-0.7 7.4,-1.9l0,0l10.8,-6.2c4.3,-2.3 7.2,-6.7 7.2,-11.9l0,-18.4l0,0l0,0l-2.6,-1.5l-11.4,6.1l0,0l0,0l0,19.2c0,0.8 -0.1,1.6 -0.2,2.4c-0.2,0.8 -0.4,1.5 -0.7,2.2c-0.1,0.2 -0.2,0.4 -0.3,0.6c-0.4,0 -2.9,-0.9 -4.2,-1.8c-0.6,-0.4 -1.1,-0.8 -1.6,-1.3c-0.5,-0.5 -0.9,-1 -1.3,-1.6c-0.4,-0.6 -1.8,-3.2 -1.8,-5.8l0,-18.6l-2.6,-1.5zm6.5,36.2c-0.7,0.3 -1.7,0.7 -2.5,0.9c-0.8,0.2 -1.5,0.2 -2.3,0.2s-1.6,-0.1 -2.4,-0.3c-0.8,-0.2 -1.5,-0.4 -2.2,-0.7c-0.7,-0.3 -1.4,-0.7 -2,-1.1c-1.7,-1.2 -2.5,-2.2 -3.2,-3.3c-0.4,-0.6 -0.8,-1.3 -1.1,-2c-0.3,-0.7 -0.5,-1.5 -0.7,-2.3c-0.4,-0.7 -0.4,-1.5 -0.4,-2.3l0,-16.1l10,-6.1l0,16.9c0,6.4 4.7,11.8 10.7,13.1c-0.2,0.3 -0.4,0.6 -0.7,0.8c-1.1,1.1 -2,1.8 -3.2,2.3zm17,-14c-0.1,0.7 -0.4,1.4 -0.6,2c-0.3,0.6 -0.6,1.2 -1,1.8c-0.4,0.6 -1.6,2.1 -3.2,3s-3.1,1.2 -4,1.4c0.6,-1.6 1,-3.2 1,-5l0,0l0,-17.7l0,0l8,-4.6l0,16.9c0,0.8 0,1.5 -0.2,2.2z" class="st1" id="mark"/>
 </g>
</svg>